<?xml version="1.0" standalone="no"?>
<!DOCTYPE svg PUBLIC "-//W3C//DTD SVG 20010904//EN"
 "http://www.w3.org/TR/2001/REC-SVG-20010904/DTD/svg10.dtd">
<svg version="1.0" xmlns="http://www.w3.org/2000/svg"
 width="512.000000pt" height="293.000000pt" viewBox="0 0 512.000000 293.000000"
 preserveAspectRatio="xMidYMid meet">

<g transform="translate(0.000000,293.000000) scale(0.100000,-0.100000)"
fill="#000000" stroke="none">
<path d="M1254 2916 c-34 -26 -6 -48 97 -78 75 -22 107 -26 155 -22 l62 5 11
-33 c14 -44 111 -372 155 -527 33 -113 35 -125 20 -136 -21 -15 -10 -55 15
-55 13 0 22 -12 29 -42 l11 -42 -121 -128 c-66 -70 -124 -128 -129 -128 -4 0
-11 5 -14 10 -7 12 -71 54 -125 83 -198 106 -460 138 -685 82 -276 -69 -513
-264 -636 -525 -20 -41 -41 -95 -48 -120 -8 -25 -17 -56 -22 -70 -4 -14 -12
-59 -18 -100 -24 -190 20 -420 110 -580 5 -8 16 -28 25 -45 26 -46 107 -144
166 -201 160 -153 418 -259 638 -262 75 -1 264 31 335 56 72 26 96 36 145 63
8 5 29 16 45 25 49 27 146 108 203 169 39 41 143 184 147 201 0 1 101 11 224
23 251 24 288 35 357 103 23 22 50 59 60 82 10 22 19 43 21 45 2 3 66 8 143
11 143 7 170 15 170 50 0 30 -24 39 -116 45 -200 13 -191 10 -220 67 -14 27
-23 56 -20 63 6 16 132 173 564 703 196 241 324 389 360 417 31 24 58 42 61
39 3 -3 13 -24 21 -47 13 -36 21 -43 56 -52 23 -5 48 -15 56 -22 20 -17 97
-172 104 -208 4 -28 1 -32 -47 -60 -68 -40 -205 -174 -261 -255 -47 -69 -118
-209 -118 -234 0 -8 -4 -17 -9 -20 -5 -3 -11 -20 -14 -38 -3 -18 -10 -55 -16
-82 -42 -189 1 -460 100 -636 5 -8 16 -28 25 -45 26 -46 107 -144 166 -201
160 -153 418 -259 638 -262 75 -1 264 31 335 56 72 26 96 36 145 63 8 5 29 16
45 25 46 26 144 107 201 166 101 106 190 267 229 413 43 161 38 346 -13 535
-14 53 -70 167 -117 241 -42 66 -163 198 -209 228 -13 9 -43 29 -67 46 -223
150 -520 197 -782 124 -118 -33 -106 -42 -157 111 l-45 135 -46 3 c-38 2 -48
8 -63 33 -21 35 -18 40 45 63 112 41 152 125 147 306 l-3 110 35 0 c20 0 53
-9 75 -20 29 -15 42 -17 52 -8 18 15 0 36 -53 59 -49 22 -69 58 -53 93 16 34
4 70 -26 84 -24 11 -35 7 -109 -33 -137 -74 -286 -136 -339 -139 -70 -4 -75
-13 -52 -94 10 -37 21 -90 23 -119 3 -43 1 -52 -15 -57 -10 -3 -330 -82 -712
-176 -552 -136 -696 -169 -702 -158 -6 9 -1 16 16 22 18 7 25 17 25 37 0 26
-2 27 -32 18 -17 -5 -33 -8 -34 -6 -3 3 -181 613 -190 651 l-7 28 164 -6 c90
-3 178 -7 194 -8 44 -4 39 23 -8 46 -33 16 -76 20 -280 27 -133 5 -273 13
-312 18 -98 15 -158 13 -181 -3z m2417 -324 c59 -65 69 -86 69 -151 0 -83 -59
-147 -145 -157 l-50 -6 -58 144 c-32 78 -60 148 -63 154 -7 16 140 82 171 76
14 -2 48 -29 76 -60z m69 26 c11 6 22 12 25 12 8 0 5 -161 -4 -205 -9 -39 -9
-39 -10 18 -1 65 -8 83 -57 144 l-34 41 30 -11 c23 -9 35 -9 50 1z m-7 -280
c-35 -61 -167 -119 -180 -80 -3 8 6 12 29 12 47 0 119 39 143 76 26 41 33 35
8 -8z m-505 -96 c-12 -18 -697 -860 -851 -1047 -79 -97 -72 -93 -168 -80 l-46
6 -107 397 c-59 218 -110 404 -112 413 -4 14 88 39 603 167 706 175 642 159
671 161 21 1 22 -1 10 -17z m-1393 -404 c-6 -49 -3 -61 39 -148 38 -82 176
-524 176 -567 0 -9 -19 -13 -64 -13 l-64 0 -7 48 c-13 96 -81 259 -148 357
-11 17 -47 61 -80 98 l-59 68 23 27 c52 60 174 182 182 182 5 0 6 -24 2 -52z
m37 -68 c9 -33 14 -60 12 -60 -8 0 -44 81 -44 100 0 39 16 19 32 -40z m-851
-67 c1 -17 2 -17 6 0 3 11 11 16 26 13 12 -3 39 -8 60 -11 36 -6 38 -8 32 -32
-13 -54 -14 -85 -1 -40 8 27 17 51 20 54 6 7 106 -27 105 -35 0 -4 -45 -95
-100 -202 -86 -170 -99 -189 -94 -150 4 43 4 44 -5 10 -6 -19 -17 -63 -26 -97
-14 -54 -19 -63 -39 -63 -33 0 -36 19 -24 130 6 55 9 105 6 112 -2 7 -7 -21
-12 -62 -7 -62 -10 -70 -16 -45 -4 17 -5 -7 -2 -52 l6 -83 -26 0 c-14 0 -28 4
-32 9 -3 6 -19 59 -35 118 -15 59 -29 101 -29 93 0 -8 6 -40 14 -70 8 -30 13
-55 12 -57 -2 -1 -51 88 -111 199 -59 110 -104 204 -99 208 4 4 29 14 55 23
l48 16 10 -42 c16 -60 21 -68 14 -22 -10 66 -10 68 16 76 48 14 88 10 93 -8 4
-14 5 -12 6 5 1 20 6 22 61 22 50 0 60 -3 61 -17z m3180 0 c1 -17 2 -17 6 0 3
11 11 16 26 13 12 -3 39 -8 60 -11 30 -5 37 -10 33 -23 -3 -9 -7 -35 -10 -57
-5 -38 -5 -38 7 7 7 25 15 50 19 53 8 8 108 -23 107 -33 0 -4 -45 -95 -100
-202 -86 -170 -99 -189 -94 -150 4 40 3 42 -5 15 -6 -16 -8 -41 -4 -55 3 -14
2 -21 -2 -17 -10 10 -34 -64 -39 -120 -4 -44 -26 -96 -32 -76 -2 6 3 28 11 50
12 29 13 34 2 20 -23 -29 -30 -3 -30 108 0 55 -2 84 -5 65 l-4 -35 -8 30 c-4
17 -5 -5 -2 -50 2 -44 9 -93 14 -109 12 -38 12 -76 -1 -76 -5 0 -10 19 -11 43
-1 41 -1 41 -10 12 -5 -16 -6 -37 -3 -45 4 -11 2 -12 -7 -3 -6 6 -12 24 -13
40 -1 15 -5 34 -10 42 -5 8 -20 46 -32 85 -13 39 -24 64 -24 56 -1 -16 -12 10
-96 232 -31 81 -53 151 -50 156 3 5 15 12 26 15 16 4 22 -2 30 -36 16 -60 21
-68 14 -22 -10 66 -10 68 16 76 48 14 88 10 93 -8 4 -14 5 -12 6 5 1 20 6 22
61 22 50 0 60 -3 61 -17z m-2865 -79 c24 -14 44 -30 44 -35 0 -5 -25 -49 -55
-97 -58 -92 -284 -339 -266 -291 16 44 221 449 227 449 3 0 25 -12 50 -26z
m3180 0 c24 -14 44 -30 44 -35 0 -5 -62 -109 -137 -230 -91 -147 -150 -231
-175 -251 -21 -16 -38 -27 -38 -24 0 46 43 151 137 339 62 125 116 227 119
227 3 0 25 -12 50 -26z m-3856 -21 c53 -89 230 -441 230 -457 0 -25 -28 -31
-52 -10 -22 20 -298 429 -298 442 0 7 78 60 92 61 3 1 16 -16 28 -36z m3120
-83 c38 -91 37 -96 -1 -40 -53 79 -63 102 -48 111 17 10 13 15 49 -71z m-2366
52 c3 -5 -16 -29 -41 -53 -47 -44 -46 -41 3 36 17 26 29 31 38 17z m3214 -27
l37 -36 -160 -154 c-88 -84 -161 -152 -163 -151 -6 6 229 376 239 376 5 0 26
-16 47 -35z m-3977 -156 c67 -100 122 -187 123 -194 1 -7 16 -29 34 -49 26
-30 30 -40 22 -56 -6 -11 -14 -20 -18 -20 -14 0 -153 95 -289 198 -18 13 -33
22 -33 19 0 -3 50 -42 110 -87 61 -45 110 -83 110 -85 0 -2 -39 12 -87 31 -47
19 -88 32 -90 30 -2 -2 27 -16 64 -30 160 -64 201 -86 201 -112 0 -33 -14 -32
-186 16 -79 23 -146 39 -148 37 -2 -2 15 -9 38 -16 161 -47 179 -54 167 -62
-9 -6 4 -9 34 -9 l48 0 -38 -36 c-35 -34 -44 -37 -123 -44 l-85 -7 83 -2 83
-1 -3 -51 -3 -50 -83 -36 c-45 -20 -81 -37 -79 -39 2 -2 41 12 86 32 46 20 85
34 87 32 2 -3 -9 -16 -24 -30 -40 -38 -285 -228 -294 -228 -13 0 -61 91 -52
99 5 4 48 25 97 46 48 21 86 40 84 42 -2 1 -46 -15 -97 -37 -51 -23 -96 -37
-100 -33 -13 14 -40 94 -36 102 3 4 33 16 67 26 34 11 58 20 52 22 -5 2 -35
-6 -66 -16 -64 -22 -60 -24 -76 47 -10 49 -10 49 59 55 41 3 40 4 -12 5 l-58
2 0 60 0 60 58 2 57 2 -58 3 -58 4 5 30 c3 16 9 42 12 58 3 20 10 28 22 26 9
-1 11 0 5 2 -17 6 -16 35 3 83 9 22 17 40 18 40 2 0 42 -16 91 -35 49 -19 90
-33 92 -31 2 2 -34 18 -79 36 -46 18 -87 37 -92 41 -9 8 39 99 53 99 5 0 19
-8 32 -18 74 -56 99 -74 99 -69 0 3 -29 27 -65 53 l-64 47 18 26 c11 14 28 34
40 45 20 19 21 18 63 -16 24 -20 98 -86 166 -148 68 -62 125 -110 127 -108 3
2 -60 61 -138 130 -78 70 -153 138 -166 152 l-23 24 39 36 c21 19 41 36 45 36
4 0 62 -82 129 -181z m3123 84 c57 -89 113 -200 104 -208 -5 -5 -258 224 -258
233 0 7 79 72 87 72 2 0 32 -44 67 -97z m-2240 -10 c20 -21 36 -42 36 -48 -1
-20 -416 -335 -441 -335 -52 0 -27 34 167 224 110 108 200 195 201 196 1 0 18
-17 37 -37z m3180 0 c40 -42 42 -51 22 -67 -192 -153 -377 -293 -409 -312 -23
-13 -41 -26 -39 -29 5 -10 -47 -47 -61 -42 -7 2 3 13 22 25 33 20 33 21 8 18
-14 -1 -33 -8 -41 -16 -29 -24 -16 6 15 36 27 24 30 26 20 7 -20 -40 -4 -25
22 20 20 33 389 397 403 397 2 0 19 -17 38 -37z m-3312 -30 c-27 -32 -60 -67
-73 -78 -13 -11 7 15 45 58 38 42 71 77 73 77 3 0 -17 -26 -45 -57z m2356 -78
c132 -119 142 -130 166 -192 14 -37 25 -68 23 -69 -2 -3 -391 278 -410 295 -8
8 59 91 73 91 4 0 71 -56 148 -125z m-2143 0 c14 -25 24 -49 21 -53 -3 -5 -35
-21 -71 -37 -36 -15 -64 -29 -62 -32 2 -2 35 10 72 27 38 17 71 27 75 23 15
-18 40 -96 33 -103 -4 -4 -65 -26 -134 -49 -114 -38 -139 -42 -250 -47 l-124
-4 80 39 c44 22 76 40 72 40 -4 1 -20 -5 -35 -13 -85 -43 -58 -14 103 113 99
77 183 141 187 141 3 0 18 -20 33 -45z m3180 0 c14 -25 24 -49 21 -53 -3 -5
-35 -21 -71 -37 -36 -15 -64 -29 -62 -32 2 -2 35 10 72 27 38 17 71 27 75 23
15 -18 40 -96 33 -103 -4 -4 -54 -23 -111 -41 -57 -19 -99 -35 -95 -36 5 -2
55 12 111 31 73 25 104 32 107 23 3 -7 9 -33 14 -59 l8 -48 -41 -2 -41 -1 43
-4 42 -4 0 -60 0 -59 -82 -2 -83 -2 84 -3 c80 -4 83 -5 77 -26 -3 -12 -6 -33
-6 -47 -1 -51 -8 -52 -134 -14 -65 20 -120 34 -122 31 -2 -2 15 -9 38 -16 24
-7 80 -24 125 -37 l83 -25 -20 -51 c-10 -28 -21 -53 -24 -55 -3 -3 -40 8 -82
26 -43 17 -79 29 -81 27 -2 -2 32 -18 77 -36 44 -18 80 -35 80 -38 0 -3 -12
-25 -26 -49 -17 -29 -31 -43 -40 -39 -19 7 -344 246 -344 252 0 3 10 3 23 0
12 -4 -9 9 -48 28 -38 19 -83 46 -100 60 l-30 27 70 -5 c39 -2 81 -7 95 -11
19 -5 21 -4 9 4 -9 6 -36 15 -61 20 -25 6 -58 16 -74 22 l-29 11 50 18 c28 10
75 19 105 20 43 2 50 4 30 10 -14 4 -19 8 -11 9 8 1 12 3 10 5 -2 3 -31 -2
-64 -10 -69 -17 -70 -18 -109 -16 l-29 2 44 35 c24 19 81 51 127 71 45 21 80
39 78 41 -2 3 -17 -2 -33 -10 -86 -44 -60 -15 102 112 99 77 183 141 187 141
3 0 18 -20 33 -45z m-1076 -110 c94 -70 171 -128 171 -131 0 -3 -25 6 -117 43
-7 3 -13 3 -13 0 0 -2 43 -22 96 -43 73 -30 99 -45 110 -66 20 -39 18 -41 -28
-35 -33 5 -442 120 -506 142 -9 3 -7 17 7 56 11 28 22 53 24 55 2 2 43 -12 92
-31 49 -19 90 -33 92 -31 2 2 -34 18 -79 36 -46 18 -87 37 -92 41 -13 11 43
102 59 95 7 -2 90 -62 184 -131z m-2015 -116 c6 -26 5 -26 -62 -32 -37 -4 -92
-7 -122 -6 l-55 1 110 38 c61 20 113 35 116 31 4 -3 9 -18 13 -32z m1931 -44
c105 -31 198 -58 209 -62 15 -4 16 -7 5 -14 -9 -6 1 -9 30 -9 24 0 61 -5 82
-11 42 -13 59 -43 25 -46 -56 -5 -149 -20 -131 -22 17 -1 18 -3 5 -12 -12 -9
-12 -10 3 -5 10 3 37 9 60 12 23 4 47 11 53 16 12 9 44 1 44 -12 0 -13 -39
-42 -112 -81 -40 -22 -62 -37 -48 -33 22 5 23 5 10 -9 -23 -24 -324 -257 -332
-257 -13 0 -61 91 -52 99 5 4 48 25 97 46 48 21 86 40 84 42 -2 1 -45 -15 -96
-37 -51 -22 -96 -38 -101 -35 -11 7 -41 95 -35 105 2 3 32 15 66 25 34 11 58
20 52 22 -5 2 -35 -6 -66 -16 l-58 -20 -8 23 c-5 12 -11 38 -13 57 l-3 34 55
6 55 6 -57 1 -58 2 0 60 0 60 58 2 57 2 -58 3 -58 4 5 30 c3 16 9 42 12 58 3
17 11 28 17 26 7 -2 98 -29 202 -60z m-1573 -1 c3 -3 -13 -23 -36 -44 -24 -22
-51 -58 -61 -80 -10 -22 -21 -38 -23 -35 -3 3 -7 41 -9 85 l-3 80 63 0 c35 0
66 -3 69 -6z m-344 -21 c2 -9 -9 -14 -35 -15 l-38 -1 38 -4 37 -4 0 -60 c0
-58 -1 -59 -27 -59 -64 0 -529 52 -537 60 -16 16 36 28 175 38 121 10 124 10
32 7 -57 -2 -103 -2 -103 0 0 2 21 11 48 21 75 28 401 41 410 17z m-388 3 c0
-9 -126 -46 -157 -46 -26 0 -33 4 -33 20 0 17 8 20 83 23 45 1 88 4 95 5 6 1
12 0 12 -2z m2965 -76 c-28 -12 -67 -12 -60 0 3 6 23 10 43 9 30 0 33 -2 17
-9z m-3507 -24 c0 -19 -7 -25 -30 -30 -59 -12 -65 -7 -30 24 39 36 60 38 60 6z
m3517 -16 c16 -7 11 -9 -22 -9 -23 -1 -45 4 -48 9 -8 12 42 12 70 0z m-30 -45
l30 -25 -30 12 c-16 6 -37 18 -45 25 -28 26 13 14 45 -12z m-3475 -5 c0 -20
-55 -62 -97 -75 -21 -6 -23 -3 -23 35 0 46 17 58 83 59 30 1 37 -2 37 -19z
m3438 -20 c31 -41 27 -49 -8 -15 -16 16 -30 32 -30 37 0 17 17 7 38 -22z
m-213 10 c-3 -5 -12 -10 -18 -10 -7 0 -6 4 3 10 19 12 23 12 15 0z m-2720 -15
c72 -7 150 -21 174 -29 47 -17 79 -21 46 -5 -14 7 -5 8 34 5 48 -3 77 -19 66
-37 -3 -3 13 -11 35 -18 l39 -11 -16 -48 c-9 -26 -19 -51 -23 -55 -4 -4 -42 6
-85 23 -43 17 -79 29 -82 27 -2 -3 32 -19 77 -37 44 -18 80 -35 80 -38 0 -3
-12 -25 -26 -49 -17 -29 -31 -43 -40 -39 -23 9 -346 248 -341 253 3 2 33 -7
68 -21 34 -14 64 -24 66 -22 2 1 -49 25 -112 51 -170 70 -167 73 40 50z m2780
-29 c-2 -24 -7 -57 -11 -73 -8 -32 -231 -483 -239 -483 -15 0 -87 43 -91 54
-7 19 237 409 295 471 25 27 39 44 32 37 -27 -22 -35 -12 -11 13 13 14 25 25
27 25 1 0 1 -20 -2 -44z m45 39 c0 -12 -33 -85 -37 -81 -8 7 17 86 27 86 6 0
10 -2 10 -5z m31 -42 c2 -33 3 -39 6 -19 l5 29 25 -44 c14 -24 39 -91 54 -149
27 -96 29 -98 13 -7 l-5 32 16 -27 c30 -52 25 -28 -6 35 -18 34 -38 82 -45
107 -7 25 -13 36 -13 26 -1 -25 -7 -19 -26 27 -10 24 -12 37 -4 37 6 0 13 -9
16 -19 3 -11 10 -17 17 -15 22 9 99 -87 229 -284 71 -106 130 -199 133 -206 7
-17 -83 -73 -96 -60 -5 5 -27 44 -50 87 -23 42 -44 77 -46 77 -2 0 16 -40 41
-90 l45 -90 -33 -14 c-70 -29 -74 -29 -86 1 l-11 28 4 -28 c4 -31 -8 -39 -76
-50 l-37 -6 -6 47 c-10 70 -16 76 -10 10 l5 -58 -60 0 c-55 0 -60 2 -61 23 -2
22 -2 22 -6 -2 -4 -20 -9 -22 -35 -17 -17 3 -39 6 -49 6 -9 0 -25 7 -33 16 -9
8 -16 11 -16 5 0 -10 -87 14 -103 29 -5 4 37 97 92 206 88 174 101 193 97 154
-4 -35 -2 -31 10 20 17 75 63 182 76 174 4 -3 8 9 8 25 0 51 20 35 21 -16z
m168 15 c36 -18 73 -31 81 -30 10 2 11 0 3 -5 -8 -6 52 -55 172 -143 199 -146
191 -135 137 -198 l-28 -34 -197 176 c-108 97 -201 185 -207 196 -6 11 -15 18
-20 15 -6 -3 -7 0 -4 8 3 8 1 18 -5 22 -12 7 -15 25 -5 25 3 0 36 -14 73 -32z
m-289 11 c0 -7 -9 -26 -20 -43 -22 -37 -383 -386 -398 -386 -12 0 -72 73 -71
86 0 5 78 70 174 144 120 92 170 137 162 143 -8 6 -7 7 4 4 9 -3 27 2 39 10
27 19 92 52 103 53 4 0 7 -5 7 -11z m-3202 -31 c4 -18 -63 -98 -82 -98 -7 0
-22 10 -34 23 -18 19 -19 26 -9 37 10 10 9 12 -6 7 -11 -4 -16 -3 -12 4 4 6
12 8 19 6 6 -2 27 6 46 19 40 26 73 27 78 2z m345 2 c15 -12 33 -18 44 -14 12
4 14 3 6 -3 -9 -6 39 -47 157 -133 94 -68 176 -130 182 -137 18 -22 -5 -36
-69 -41 l-58 -4 -115 105 c-63 58 -127 118 -141 133 -15 16 -41 41 -58 55 -55
47 -6 84 52 39z m-303 -77 c-4 -36 -10 -49 -23 -51 -28 -6 -64 6 -71 23 -3 8
-2 14 3 12 4 -1 20 13 35 31 15 17 35 32 45 32 14 0 16 -7 11 -47z m-279 -180
c-79 -76 -150 -139 -156 -141 -7 -2 -27 16 -45 38 -40 50 -51 35 145 189 l140
110 30 -29 29 -30 -143 -137z m1354 147 c8 -38 77 -115 121 -136 39 -19 44
-34 12 -34 -13 0 -72 -5 -132 -10 -60 -6 -111 -9 -113 -6 -2 2 4 24 15 48 23
53 36 90 51 146 10 35 15 41 26 32 8 -6 17 -24 20 -40z m2006 1 c-9 -16 -230
-372 -236 -379 -4 -5 -84 63 -85 73 -1 8 318 323 328 325 1 0 -2 -8 -7 -19z
m582 -160 c75 -68 137 -126 137 -130 0 -8 -75 -71 -84 -71 -5 0 -229 330 -251
370 -4 8 7 1 26 -16 19 -17 96 -86 172 -153z m-3605 142 c-10 -2 -26 -2 -35 0
-10 3 -2 5 17 5 19 0 27 -2 18 -5z m-178 -8 c0 -5 -177 -296 -205 -337 -11
-16 -15 -15 -53 14 -23 18 -42 38 -42 44 0 13 279 283 293 284 4 0 7 -2 7 -5z
m98 -18 c9 -7 11 -24 8 -51 l-5 -41 11 45 c13 51 22 60 61 60 23 0 27 -4 27
-29 0 -68 -10 -86 -56 -103 -43 -15 -44 -15 -45 6 -2 20 -2 20 -6 -1 -2 -13
-11 -23 -20 -23 -11 0 -13 -5 -8 -17 10 -22 10 -37 2 -88 l-7 -40 13 40 c9 28
15 36 21 26 5 -7 24 -19 42 -27 29 -12 34 -19 36 -52 l1 -37 4 35 c6 44 19 60
49 60 18 0 24 -6 25 -22 1 -21 2 -21 6 -3 7 27 21 35 66 35 23 0 37 -5 37 -12
0 -9 2 -10 8 -2 12 19 52 27 68 13 9 -7 33 -48 55 -91 l40 -79 -33 -13 c-74
-31 -76 -30 -87 11 -32 123 -39 147 -40 133 0 -8 8 -49 19 -90 10 -41 16 -78
12 -82 -4 -4 -29 -12 -56 -17 -43 -8 -48 -7 -56 13 -9 21 -9 21 -9 -1 -1 -21
-6 -23 -61 -23 -55 0 -60 2 -61 23 l-2 22 -4 -23 c-2 -12 -10 -22 -16 -22 -31
1 -102 22 -109 33 -6 9 -8 9 -8 0 0 -9 -13 -8 -47 4 -27 9 -52 19 -56 23 -5 4
35 93 87 199 53 105 96 194 96 198 -1 5 -45 -78 -98 -184 -54 -105 -100 -195
-104 -198 -8 -9 -88 33 -94 49 -4 11 168 302 208 353 11 13 64 7 86 -10z m206
-2 c8 -32 3 -41 -35 -60 -32 -17 -34 -15 -41 42 -5 33 2 39 48 42 16 1 24 -7
28 -24z m274 -92 c45 -41 82 -79 82 -84 0 -5 -22 -9 -49 -9 l-48 0 -62 93
c-96 146 -84 146 77 0z m-248 72 c0 -5 -5 -3 -10 5 -5 8 -10 20 -10 25 0 6 5
3 10 -5 5 -8 10 -19 10 -25z m-111 -69 c-15 -16 -18 -3 -11 44 l6 45 7 -40 c4
-22 3 -44 -2 -49z m277 -13 c57 -86 56 -93 -17 -93 l-45 0 -34 69 -33 69 29
25 c17 16 33 22 38 17 5 -5 33 -44 62 -87z m-107 -22 c17 -32 31 -64 31 -70 0
-18 -48 -13 -59 7 -9 15 -10 15 -11 1 0 -13 -12 -18 -46 -21 -25 -2 -47 -1
-50 1 -2 2 -4 22 -4 43 0 32 5 41 33 58 41 25 45 25 50 -2 5 -21 5 -21 5 2 -1
59 12 54 51 -19z m-149 -51 c0 -33 -3 -40 -19 -40 -17 0 -19 6 -16 38 4 46 2
42 20 42 11 0 15 -11 15 -40z m534 -35 c-20 -30 -26 -31 -48 -6 -17 19 -17 20
21 24 21 2 39 4 41 5 1 1 -5 -9 -14 -23z m-57 -10 l28 -25 -40 -34 c-22 -20
-43 -35 -47 -36 -4 0 -23 24 -43 53 l-35 52 42 6 c24 3 48 7 55 7 7 1 25 -9
40 -23z m-114 -45 c20 -29 37 -57 37 -61 0 -5 -21 -20 -46 -35 -55 -32 -53
-34 -110 78 l-34 67 48 4 c66 5 63 6 105 -53z"/>
<path d="M902 1640 c0 -19 2 -27 5 -17 2 9 2 25 0 35 -3 9 -5 1 -5 -18z"/>
<path d="M1013 1635 c0 -22 2 -30 4 -17 2 12 2 30 0 40 -3 9 -5 -1 -4 -23z"/>
<path d="M912 1570 c0 -19 2 -27 5 -17 2 9 2 25 0 35 -3 9 -5 1 -5 -18z"/>
<path d="M791 1564 c0 -11 3 -14 6 -6 3 7 2 16 -1 19 -3 4 -6 -2 -5 -13z"/>
<path d="M1003 1545 c0 -22 2 -30 4 -17 2 12 2 30 0 40 -3 9 -5 -1 -4 -23z"/>
<path d="M1122 1560 c0 -14 2 -19 5 -12 2 6 2 18 0 25 -3 6 -5 1 -5 -13z"/>
<path d="M801 1524 c0 -11 3 -14 6 -6 3 7 2 16 -1 19 -3 4 -6 -2 -5 -13z"/>
<path d="M922 1500 c0 -19 2 -27 5 -17 2 9 2 25 0 35 -3 9 -5 1 -5 -18z"/>
<path d="M1112 1510 c0 -14 2 -19 5 -12 2 6 2 18 0 25 -3 6 -5 1 -5 -13z"/>
<path d="M811 1484 c0 -11 3 -14 6 -6 3 7 2 16 -1 19 -3 4 -6 -2 -5 -13z"/>
<path d="M993 1455 c0 -22 2 -30 4 -17 2 12 2 30 0 40 -3 9 -5 -1 -4 -23z"/>
<path d="M1096 1444 c-4 -20 -5 -38 -3 -40 3 -3 8 11 11 32 4 20 5 38 3 40 -3
3 -8 -11 -11 -32z"/>
<path d="M821 1444 c0 -11 3 -14 6 -6 3 7 2 16 -1 19 -3 4 -6 -2 -5 -13z"/>
<path d="M932 1430 c0 -19 2 -27 5 -17 2 9 2 25 0 35 -3 9 -5 1 -5 -18z"/>
<path d="M831 1404 c0 -11 3 -14 6 -6 3 7 2 16 -1 19 -3 4 -6 -2 -5 -13z"/>
<path d="M1082 1370 c0 -14 2 -19 5 -12 2 6 2 18 0 25 -3 6 -5 1 -5 -13z"/>
<path d="M942 1350 c0 -19 2 -27 5 -17 2 9 2 25 0 35 -3 9 -5 1 -5 -18z"/>
<path d="M4082 1640 c0 -19 2 -27 5 -17 2 9 2 25 0 35 -3 9 -5 1 -5 -18z"/>
<path d="M4193 1635 c0 -22 2 -30 4 -17 2 12 2 30 0 40 -3 9 -5 -1 -4 -23z"/>
<path d="M4092 1570 c0 -19 2 -27 5 -17 2 9 2 25 0 35 -3 9 -5 1 -5 -18z"/>
<path d="M3971 1564 c0 -11 3 -14 6 -6 3 7 2 16 -1 19 -3 4 -6 -2 -5 -13z"/>
<path d="M4183 1545 c0 -22 2 -30 4 -17 2 12 2 30 0 40 -3 9 -5 -1 -4 -23z"/>
<path d="M4302 1560 c0 -14 2 -19 5 -12 2 6 2 18 0 25 -3 6 -5 1 -5 -13z"/>
<path d="M3981 1524 c0 -11 3 -14 6 -6 3 7 2 16 -1 19 -3 4 -6 -2 -5 -13z"/>
<path d="M4102 1500 c0 -19 2 -27 5 -17 2 9 2 25 0 35 -3 9 -5 1 -5 -18z"/>
<path d="M4292 1510 c0 -14 2 -19 5 -12 2 6 2 18 0 25 -3 6 -5 1 -5 -13z"/>
<path d="M3991 1484 c0 -11 3 -14 6 -6 3 7 2 16 -1 19 -3 4 -6 -2 -5 -13z"/>
<path d="M4173 1455 c0 -22 2 -30 4 -17 2 12 2 30 0 40 -3 9 -5 -1 -4 -23z"/>
<path d="M4276 1444 c-4 -20 -5 -38 -3 -40 3 -3 8 11 11 32 4 20 5 38 3 40 -3
3 -8 -11 -11 -32z"/>
<path d="M4001 1444 c0 -11 3 -14 6 -6 3 7 2 16 -1 19 -3 4 -6 -2 -5 -13z"/>
<path d="M4112 1430 c0 -19 2 -27 5 -17 2 9 2 25 0 35 -3 9 -5 1 -5 -18z"/>
<path d="M4011 1404 c0 -11 3 -14 6 -6 3 7 2 16 -1 19 -3 4 -6 -2 -5 -13z"/>
<path d="M4163 1365 c0 -22 2 -30 4 -17 2 12 2 30 0 40 -3 9 -5 -1 -4 -23z"/>
<path d="M4262 1370 c0 -14 2 -19 5 -12 2 6 2 18 0 25 -3 6 -5 1 -5 -13z"/>
<path d="M4021 1364 c0 -11 3 -14 6 -6 3 7 2 16 -1 19 -3 4 -6 -2 -5 -13z"/>
<path d="M4122 1350 c0 -19 2 -27 5 -17 2 9 2 25 0 35 -3 9 -5 1 -5 -18z"/>
<path d="M4032 1320 c0 -14 2 -19 5 -12 2 6 2 18 0 25 -3 6 -5 1 -5 -13z"/>
<path d="M490 1190 c8 -5 20 -10 25 -10 6 0 3 5 -5 10 -8 5 -19 10 -25 10 -5
0 -3 -5 5 -10z"/>
<path d="M360 1114 c41 -13 80 -23 85 -23 6 1 -24 12 -65 25 -41 13 -79 23
-85 23 -5 -1 24 -12 65 -25z"/>
<path d="M433 1013 c37 -2 96 -2 130 0 34 2 4 3 -68 3 -72 0 -99 -1 -62 -3z"/>
<path d="M367 903 c18 -2 50 -2 70 0 21 2 7 4 -32 4 -38 0 -55 -2 -38 -4z"/>
<path d="M540 865 c-36 -13 -60 -24 -54 -24 5 -1 41 10 80 23 38 14 62 24 54
24 -8 0 -44 -10 -80 -23z"/>
<path d="M1450 1215 c-14 -8 -20 -14 -15 -14 6 0 21 6 35 14 14 8 21 14 15 14
-5 0 -21 -6 -35 -14z"/>
<path d="M1360 1175 c-14 -8 -20 -14 -15 -14 6 0 21 6 35 14 14 8 21 14 15 14
-5 0 -21 -6 -35 -14z"/>
<path d="M4630 1215 c-14 -8 -20 -14 -15 -14 6 0 21 6 35 14 14 8 21 14 15 14
-5 0 -21 -6 -35 -14z"/>
<path d="M4550 1180 c-19 -11 -30 -19 -25 -19 6 0 26 8 45 19 19 11 31 19 25
19 -5 0 -26 -8 -45 -19z"/>
<path d="M4697 1033 c18 -2 50 -2 70 0 21 2 7 4 -32 4 -38 0 -55 -2 -38 -4z"/>
<path d="M4528 1023 c23 -2 59 -2 80 0 20 2 1 4 -43 4 -44 0 -61 -2 -37 -4z"/>
<path d="M4518 923 c34 -2 90 -2 125 0 34 2 6 3 -63 3 -69 0 -97 -1 -62 -3z"/>
<path d="M4490 895 c19 -7 42 -13 50 -13 8 0 -1 6 -20 13 -19 7 -42 13 -50 13
-8 0 1 -6 20 -13z"/>
<path d="M4575 870 c11 -5 27 -9 35 -9 9 0 8 4 -5 9 -11 5 -27 9 -35 9 -9 0
-8 -4 5 -9z"/>
<path d="M4480 800 c8 -5 20 -10 25 -10 6 0 3 5 -5 10 -8 5 -19 10 -25 10 -5
0 -3 -5 5 -10z"/>
<path d="M4530 780 c8 -5 20 -10 25 -10 6 0 3 5 -5 10 -8 5 -19 10 -25 10 -5
0 -3 -5 5 -10z"/>
<path d="M4580 760 c8 -5 20 -10 25 -10 6 0 3 5 -5 10 -8 5 -19 10 -25 10 -5
0 -3 -5 5 -10z"/>
<path d="M4630 740 c8 -5 20 -10 25 -10 6 0 3 5 -5 10 -8 5 -19 10 -25 10 -5
0 -3 -5 5 -10z"/>
<path d="M3670 1190 c8 -5 20 -10 25 -10 6 0 3 5 -5 10 -8 5 -19 10 -25 10 -5
0 -3 -5 5 -10z"/>
<path d="M3720 1170 c8 -5 20 -10 25 -10 6 0 3 5 -5 10 -8 5 -19 10 -25 10 -5
0 -3 -5 5 -10z"/>
<path d="M3603 1013 c37 -2 97 -2 135 0 37 2 6 3 -68 3 -74 0 -105 -1 -67 -3z"/>
<path d="M3713 913 c20 -2 54 -2 75 0 20 2 3 4 -38 4 -41 0 -58 -2 -37 -4z"/>
<path d="M3558 903 c23 -2 59 -2 80 0 20 2 1 4 -43 4 -44 0 -61 -2 -37 -4z"/>
<path d="M3720 865 c-52 -18 -90 -34 -85 -34 6 -1 56 14 110 33 55 19 93 34
85 34 -8 0 -58 -15 -110 -33z"/>
<path d="M3745 765 c-38 -18 -65 -33 -60 -33 6 -1 42 14 80 33 39 18 66 33 60
33 -5 1 -41 -14 -80 -33z"/>
<path d="M1517 1033 c18 -2 50 -2 70 0 21 2 7 4 -32 4 -38 0 -55 -2 -38 -4z"/>
<path d="M1565 820 c11 -5 27 -9 35 -9 9 0 8 4 -5 9 -11 5 -27 9 -35 9 -9 0
-8 -4 5 -9z"/>
<path d="M1400 760 c8 -5 20 -10 25 -10 6 0 3 5 -5 10 -8 5 -19 10 -25 10 -5
0 -3 -5 5 -10z"/>
<path d="M1450 740 c8 -5 20 -10 25 -10 6 0 3 5 -5 10 -8 5 -19 10 -25 10 -5
0 -3 -5 5 -10z"/>
<path d="M4143 724 c0 -57 3 -86 7 -69 l7 30 5 -30 c2 -16 2 6 0 50 -7 120
-18 131 -19 19z"/>
<path d="M4335 550 c19 -38 38 -70 40 -70 3 0 -11 32 -30 70 -19 39 -38 70
-40 70 -3 0 11 -31 30 -70z"/>
<path d="M4133 575 c0 -22 2 -30 4 -17 2 12 2 30 0 40 -3 9 -5 -1 -4 -23z"/>
<path d="M4172 580 c0 -19 2 -27 5 -17 2 9 2 25 0 35 -3 9 -5 1 -5 -18z"/>
<path d="M4032 570 c0 -14 2 -19 5 -12 2 6 2 18 0 25 -3 6 -5 1 -5 -13z"/>
<path d="M4281 534 c0 -11 3 -14 6 -6 3 7 2 16 -1 19 -3 4 -6 -2 -5 -13z"/>
<path d="M4022 520 c0 -14 2 -19 5 -12 2 6 2 18 0 25 -3 6 -5 1 -5 -13z"/>
<path d="M4182 510 c0 -19 2 -27 5 -17 2 9 2 25 0 35 -3 9 -5 1 -5 -18z"/>
<path d="M4123 485 c0 -22 2 -30 4 -17 2 12 2 30 0 40 -3 9 -5 -1 -4 -23z"/>
<path d="M4291 494 c0 -11 3 -14 6 -6 3 7 2 16 -1 19 -3 4 -6 -2 -5 -13z"/>
<path d="M4006 454 c-4 -20 -5 -38 -3 -40 3 -3 8 11 11 32 4 20 5 38 3 40 -3
3 -8 -11 -11 -32z"/>
<path d="M4192 440 c0 -19 2 -27 5 -17 2 9 2 25 0 35 -3 9 -5 1 -5 -18z"/>
<path d="M4301 460 c0 -8 8 -46 18 -85 11 -38 19 -63 20 -55 0 8 -8 47 -18 85
-11 39 -19 63 -20 55z"/>
<path d="M4113 395 c0 -22 2 -30 4 -17 2 12 2 30 0 40 -3 9 -5 -1 -4 -23z"/>
<path d="M3992 380 c0 -14 2 -19 5 -12 2 6 2 18 0 25 -3 6 -5 1 -5 -13z"/>
<path d="M4202 370 c0 -19 2 -27 5 -17 2 9 2 25 0 35 -3 9 -5 1 -5 -18z"/>
<path d="M3976 314 c-4 -20 -5 -38 -3 -40 3 -3 8 11 11 32 4 20 5 38 3 40 -3
3 -8 -11 -11 -32z"/>
<path d="M4103 310 c0 -25 2 -35 4 -22 2 12 2 32 0 45 -2 12 -4 2 -4 -23z"/>
<path d="M812 380 c0 -14 2 -19 5 -12 2 6 2 18 0 25 -3 6 -5 1 -5 -13z"/>
<path d="M1022 370 c0 -19 2 -27 5 -17 2 9 2 25 0 35 -3 9 -5 1 -5 -18z"/>
<path d="M796 314 c-4 -20 -5 -38 -3 -40 3 -3 8 11 11 32 4 20 5 38 3 40 -3 3
-8 -11 -11 -32z"/>
<path d="M923 310 c0 -25 2 -35 4 -22 2 12 2 32 0 45 -2 12 -4 2 -4 -23z"/>
<path d="M1032 300 c0 -19 2 -27 5 -17 2 9 2 25 0 35 -3 9 -5 1 -5 -18z"/>
<path d="M1101 534 c0 -11 3 -14 6 -6 3 7 2 16 -1 19 -3 4 -6 -2 -5 -13z"/>
</g>
</svg>
